1.8Hz3min_grf.mot
version=1
nRows=17
nColumns 19
inDegrees=yes
endheader
time	1_ground_force_vx	1_ground_force_vy	1_ground_force_vz	1_ground_force_px	1_ground_force_py	1_ground_force_pz	1_ground_torque_x	1_ground_torque_y	1_ground_torque_z	2_ground_force_vx	2_ground_force_vy	2_ground_force_vz	2_ground_force_px	2_ground_force_py	2_ground_force_pz	2_ground_torque_x	2_ground_torque_y	2_ground_torque_z
            0.005000	            9.679981	          194.593285	          -18.954106	           -0.131452	            0.006302	           -0.419396	            0.030473	            0.612595	           -0.059669	            5.618951	          176.593669	           59.851392	           -0.163684	            0.006132	           -0.764660	           -0.157958	           -4.964331	           -1.682519
            0.005500	            9.589163	          191.708427	          -18.828678	           -0.131437	            0.006301	           -0.419107	            0.027662	            0.553024	           -0.054315	            5.302177	          173.462975	           59.558793	           -0.163116	            0.006134	           -0.764675	           -0.151191	           -4.946265	           -1.698308
            0.006000	            9.591592	          189.001100	          -18.060722	           -0.131269	            0.006298	           -0.418389	            0.028775	            0.567004	           -0.054182	            5.269887	          169.412030	           59.403574	           -0.162759	            0.006135	           -0.764597	           -0.154598	           -4.969885	           -1.742668
            0.006500	            9.683999	          186.296739	          -17.980832	           -0.131884	            0.006293	           -0.417407	            0.028921	            0.556369	           -0.053699	            4.952928	          166.282842	           58.688622	           -0.162452	            0.006138	           -0.765285	           -0.147326	           -4.946128	           -1.745709
            0.007000	            9.547910	          182.149422	          -17.723134	           -0.130993	            0.006298	           -0.418482	            0.024772	            0.472593	           -0.045983	            4.731163	          162.784342	           58.347740	           -0.161585	            0.006144	           -0.766091	           -0.142372	           -4.898566	           -1.755822
            0.007500	            9.641587	          178.722033	          -17.187777	           -0.130115	            0.006298	           -0.418402	            0.030449	            0.564417	           -0.054280	            4.600479	          160.022469	           58.103304	           -0.161268	            0.006146	           -0.766324	           -0.141014	           -4.905029	           -1.780990
            0.008000	            9.504942	          176.377766	          -17.014060	           -0.131009	            0.006293	           -0.417222	            0.030479	            0.565583	           -0.054558	            4.660622	          156.339672	           58.090143	           -0.160659	            0.006147	           -0.765852	           -0.146188	           -4.903844	           -1.822090
            0.008500	            9.231437	          172.230226	          -16.710164	           -0.129813	            0.006299	           -0.418756	            0.030324	            0.565758	           -0.054891	            4.533200	          152.657537	           57.701636	           -0.159263	            0.006156	           -0.766903	           -0.143608	           -4.836072	           -1.827943
            0.009000	            9.231784	          169.706703	          -16.766842	           -0.130434	            0.006293	           -0.417247	            0.024814	            0.456155	           -0.045068	            4.029773	          149.341326	           57.596172	           -0.159648	            0.006153	           -0.766708	           -0.129344	           -4.793415	           -1.848667
            0.009500	            9.325085	          167.721636	          -16.271157	           -0.130876	            0.006289	           -0.416342	            0.025425	            0.457303	           -0.044364	            4.041674	          146.027174	           57.443561	           -0.159085	            0.006159	           -0.767778	           -0.132189	           -4.776043	           -1.878780
            0.010000	            8.960431	          163.753361	          -15.736981	           -0.130245	            0.006292	           -0.417140	            0.022175	            0.405253	           -0.038946	            3.914232	          142.345206	           57.008127	           -0.157413	            0.006163	           -0.767098	           -0.128114	           -4.659004	           -1.865894
            0.010500	            8.961673	          160.687665	          -15.474986	           -0.129568	            0.006295	           -0.417701	            0.022309	            0.400010	           -0.038523	            3.640300	          140.319723	           56.672522	           -0.158157	            0.006162	           -0.767582	           -0.124008	           -4.780056	           -1.930576
            0.011000	            8.871394	          156.720623	          -15.216628	           -0.128602	            0.006301	           -0.418958	            0.026324	            0.465032	           -0.045152	            3.604645	          137.189877	           56.426731	           -0.156694	            0.006171	           -0.768543	           -0.124956	           -4.755738	           -1.956054
            0.011500	            8.643551	          154.195286	          -14.860033	           -0.128148	            0.006295	           -0.417631	            0.027673	            0.493666	           -0.047575	            3.199386	          132.586465	           55.894275	           -0.155426	            0.006172	           -0.767735	           -0.111360	           -4.614908	           -1.945500
            0.012000	            8.736659	          150.768880	          -14.553956	           -0.128609	            0.006296	           -0.417865	            0.027667	            0.477448	           -0.046089	            3.252820	          130.745668	           55.746900	           -0.154989	            0.006178	           -0.768999	           -0.116319	           -4.675399	           -1.993481
            0.012500	            8.737347	          148.244767	          -14.473065	           -0.128259	            0.006293	           -0.417211	            0.024242	            0.411312	           -0.040156	            3.078651	          127.062527	           55.593054	           -0.153892	            0.006180	           -0.768408	           -0.110691	           -4.568444	           -1.998809
            0.013000	            8.326572	          145.178009	          -13.980767	           -0.128422	            0.006296	           -0.417801	            0.018978	            0.330899	           -0.031866	            3.042250	          124.117491	           55.160208	           -0.152816	            0.006186	           -0.768837	           -0.112158	           -4.575816	           -2.033581
